<svg width="18" height="18" viewBox="0 0 18 18" fill="none" xmlns="http://www.w3.org/2000/svg">
<g id="Icon/Googlee" clip-path="url(#clip0_276_2210)">
<path id="Vector" d="M17.9914 9.16838C17.9914 8.43093 17.9302 7.89279 17.7977 7.33472H9.17932V10.6632H14.2381C14.1361 11.4904 13.5854 12.7361 12.3615 13.5732L12.3443 13.6846L15.0693 15.7472L15.258 15.7657C16.9919 14.201 17.9914 11.899 17.9914 9.16838Z" fill="#4285F4"/>
<path id="Vector_2" d="M9.17932 17.9382C11.6577 17.9382 13.7383 17.1409 15.258 15.7657L12.3615 13.5732C11.5863 14.1014 10.546 14.4701 9.17932 14.4701C6.75192 14.4701 4.6917 12.9055 3.95728 10.743L3.84963 10.7519L1.01618 12.8945L0.979126 12.9952C2.48859 15.9251 5.58916 17.9382 9.17932 17.9382Z" fill="#34A853"/>
<path id="Vector_3" d="M3.95726 10.743C3.76348 10.1849 3.65133 9.58692 3.65133 8.96908C3.65133 8.35117 3.76348 7.75325 3.94706 7.19519L3.94193 7.07633L1.07297 4.89929L0.979102 4.94292C0.356977 6.15874 0 7.52406 0 8.96908C0 10.4141 0.356977 11.7793 0.979102 12.9952L3.95726 10.743Z" fill="#FBBC05"/>
<path id="Vector_4" d="M9.17932 3.46802C10.903 3.46802 12.0656 4.19551 12.7286 4.80346L15.3192 2.33196C13.7282 0.886946 11.6577 0 9.17932 0C5.58916 0 2.48859 2.01305 0.979126 4.94292L3.94709 7.19519C4.6917 5.03265 6.75192 3.46802 9.17932 3.46802Z" fill="#EB4335"/>
</g>
<defs>
<clipPath id="clip0_276_2210">
<rect width="18" height="18" fill="white"/>
</clipPath>
</defs>
</svg>
