<svg width="16" height="18" viewBox="0 0 16 18" fill="none" xmlns="http://www.w3.org/2000/svg">
<path id="Vector" d="M13.053 17.2778C12.0731 18.2277 11.0032 18.0777 9.97335 17.6278C8.88349 17.1678 7.88362 17.1478 6.73376 17.6278C5.29394 18.2477 4.53404 18.0677 3.67415 17.2778C-1.20524 12.2485 -0.485327 4.58942 5.05397 4.30946C6.4038 4.37945 7.34368 5.04936 8.13358 5.10935C9.31344 4.86939 10.4433 4.17947 11.7031 4.26946C13.2129 4.38945 14.3528 4.98937 15.1027 6.06923C11.9831 7.939 12.723 12.0485 15.5826 13.1983C15.0127 14.6981 14.2728 16.188 13.043 17.2878L13.053 17.2778ZM8.0336 4.24946C7.88362 2.01974 9.69339 0.179977 11.7731 0C12.0631 2.57967 9.43342 4.49943 8.0336 4.24946Z" fill="#E6F5F8"/>
</svg>
