<svg width="26" height="30" viewBox="0 0 26 30" fill="none" xmlns="http://www.w3.org/2000/svg">
<g id="Group 14">
<path id="Vector" d="M21.1786 8L20.1071 9.79808C22.4643 11.0673 23.8571 13.6058 23.8571 16.25C23.8571 21.75 19.7857 25.4519 17.4286 27.0385V23.6538H16.3571C13.6786 23.6538 11.1071 22.1731 9.82143 19.8462L8 20.9038C9.5 23.6538 12.2857 25.3462 15.3929 25.7692V28.9423C15.3929 29.2596 15.6071 29.6827 15.9286 29.8942C15.9286 30 16.1429 30 16.3571 30C16.5714 30 16.6786 30 16.7857 29.8942C17.2143 29.6827 26 25.2404 26 16.25C26 12.8654 24.1786 9.69231 21.1786 8Z" fill="#0E0B1D"/>
<path id="Vector_2" d="M16.8421 11.6842V6.10526C18.1053 5.68421 18.9474 4.52632 18.9474 3.15789C18.9474 1.36842 17.5789 0 15.7895 0C14 0 12.6316 1.36842 12.6316 3.15789C12.6316 4.52632 13.4737 5.68421 14.7368 6.10526V11.6842C14.3158 11.7895 14 11.8947 13.6842 12.1053L8.10526 6.52632C8.31579 6.21053 8.42105 5.78947 8.42105 5.26316C8.42105 3.47368 7.05263 2.10526 5.26316 2.10526C3.47368 2.10526 2.10526 3.47368 2.10526 5.26316C2.10526 7.05263 3.47368 8.42105 5.26316 8.42105C5.78947 8.42105 6.21053 8.31579 6.63158 8.10526L12.2105 13.6842C12 14 11.8947 14.4211 11.7895 14.7368H6.10526C5.68421 13.4737 4.52632 12.6316 3.15789 12.6316C1.36842 12.6316 0 14 0 15.7895C0 17.5789 1.36842 18.9474 3.15789 18.9474C4.52632 18.9474 5.68421 18.1053 6.10526 16.8421H11.6842C12.1053 18.6316 13.7895 20 15.7895 20C18.1053 20 20 18.1053 20 15.7895C20 13.7895 18.6316 12.2105 16.8421 11.6842ZM15.7895 2.10526C16.4211 2.10526 16.8421 2.52632 16.8421 3.15789C16.8421 3.78947 16.4211 4.21053 15.7895 4.21053C15.1579 4.21053 14.7368 3.78947 14.7368 3.15789C14.7368 2.52632 15.1579 2.10526 15.7895 2.10526ZM5.26316 6.31579C4.63158 6.31579 4.21053 5.89474 4.21053 5.26316C4.21053 4.63158 4.63158 4.21053 5.26316 4.21053C5.89474 4.21053 6.31579 4.63158 6.31579 5.26316C6.31579 5.89474 5.89474 6.31579 5.26316 6.31579ZM3.15789 16.8421C2.52632 16.8421 2.10526 16.4211 2.10526 15.7895C2.10526 15.1579 2.52632 14.7368 3.15789 14.7368C3.78947 14.7368 4.21053 15.1579 4.21053 15.7895C4.21053 16.4211 3.78947 16.8421 3.15789 16.8421ZM15.7895 17.8947C14.6316 17.8947 13.6842 16.9474 13.6842 15.7895C13.6842 14.6316 14.6316 13.6842 15.7895 13.6842C16.9474 13.6842 17.8947 14.6316 17.8947 15.7895C17.8947 16.9474 16.9474 17.8947 15.7895 17.8947Z" fill="#0E0B1D"/>
</g>
</svg>
