<svg width="32" height="32" viewBox="0 0 32 32" fill="none" xmlns="http://www.w3.org/2000/svg">
<path id="Vector" d="M26 17.2016C26.6875 17.2016 27.3333 17.3333 27.9375 17.5968C28.5417 17.8603 29.0729 18.2187 29.5312 18.6719C29.9896 19.1252 30.349 19.6627 30.6094 20.2846C30.8698 20.9065 31 21.5652 31 22.2609C31 22.809 30.9167 23.3412 30.75 23.8577C30.5833 24.3742 30.3333 24.8538 30 25.2964V32L26 29.9763L22 32V25.2964C21.6771 24.8538 21.4323 24.3742 21.2656 23.8577C21.099 23.3412 21.0104 22.809 21 22.2609C21 21.5652 21.1302 20.9117 21.3906 20.3004C21.651 19.6891 22.0052 19.1515 22.4531 18.6877C22.901 18.224 23.4323 17.8603 24.0469 17.5968C24.6615 17.3333 25.3125 17.2016 26 17.2016ZM26 19.2253C25.5833 19.2253 25.1927 19.3043 24.8281 19.4625C24.4635 19.6206 24.1458 19.8366 23.875 20.1107C23.6042 20.3847 23.3906 20.7062 23.2344 21.0751C23.0781 21.444 23 21.8393 23 22.2609C23 22.6825 23.0781 23.0777 23.2344 23.4466C23.3906 23.8155 23.6042 24.137 23.875 24.4111C24.1458 24.6851 24.4635 24.9012 24.8281 25.0593C25.1927 25.2174 25.5833 25.2964 26 25.2964C26.4167 25.2964 26.8073 25.2174 27.1719 25.0593C27.5365 24.9012 27.8542 24.6851 28.125 24.4111C28.3958 24.137 28.6094 23.8155 28.7656 23.4466C28.9219 23.0777 29 22.6825 29 22.2609C29 21.8393 28.9219 21.444 28.7656 21.0751C28.6094 20.7062 28.3958 20.3847 28.125 20.1107C27.8542 19.8366 27.5365 19.6206 27.1719 19.4625C26.8073 19.3043 26.4167 19.2253 26 19.2253ZM28 28.7115V26.8933C27.375 27.1779 26.7083 27.3202 26 27.3202C25.2917 27.3202 24.625 27.1779 24 26.8933V28.7115L26 27.6996L28 28.7115ZM26 8.09486C25.4479 8.09486 24.9323 8.20026 24.4531 8.41107C23.974 8.62187 23.5469 8.91173 23.1719 9.28063C22.7969 9.64954 22.5104 10.0764 22.3125 10.5613C22.1146 11.0461 22.0104 11.5731 22 12.1423C22 13.112 21.7865 14.0237 21.3594 14.8775C20.9323 15.7312 20.3281 16.4532 19.5469 17.0435C19.7448 17.1383 19.9323 17.2437 20.1094 17.3597C20.2865 17.4756 20.4688 17.5968 20.6562 17.7233L19.4844 19.3676C18.974 18.9987 18.4219 18.7141 17.8281 18.5138C17.2344 18.3136 16.625 18.2134 16 18.2134C15.1667 18.2134 14.3906 18.3715 13.6719 18.6877C12.9531 19.004 12.3177 19.4361 11.7656 19.9842C11.2135 20.5323 10.7812 21.1805 10.4688 21.9289C10.1562 22.6772 10 23.4625 10 24.2846H8C8 23.5152 8.10417 22.7721 8.3125 22.0553C8.52083 21.3386 8.81771 20.664 9.20312 20.0316C9.58854 19.3992 10.0521 18.83 10.5938 18.3241C11.1354 17.8182 11.75 17.386 12.4375 17.0277C11.6667 16.448 11.0677 15.7312 10.6406 14.8775C10.2135 14.0237 10 13.112 10 12.1423C10 11.5837 9.89583 11.0619 9.6875 10.5771C9.47917 10.0922 9.19271 9.66008 8.82812 9.28063C8.46354 8.90119 8.04167 8.61133 7.5625 8.41107C7.08333 8.2108 6.5625 8.1054 6 8.09486C5.44792 8.09486 4.93229 8.20026 4.45312 8.41107C3.97396 8.62187 3.54688 8.91173 3.17188 9.28063C2.79688 9.64954 2.51042 10.0764 2.3125 10.5613C2.11458 11.0461 2.01042 11.5731 2 12.1423H0C0 11.5942 0.0729167 11.0619 0.21875 10.5455C0.364583 10.029 0.567708 9.53887 0.828125 9.0751C1.08854 8.61133 1.41146 8.18972 1.79688 7.81028C2.18229 7.43083 2.61458 7.10408 3.09375 6.83004C2.75 6.46113 2.48438 6.03426 2.29688 5.54941C2.10938 5.06456 2.01042 4.5639 2 4.04743C2 3.4888 2.10417 2.96706 2.3125 2.48221C2.52083 1.99736 2.80729 1.56522 3.17188 1.18577C3.53646 0.806324 3.95833 0.516469 4.4375 0.316206C4.91667 0.115942 5.4375 0.0105402 6 0C6.55208 0 7.06771 0.105402 7.54688 0.316206C8.02604 0.527009 8.45312 0.816864 8.82812 1.18577C9.20312 1.55468 9.48958 1.98155 9.6875 2.4664C9.88542 2.95125 9.98958 3.47826 10 4.04743C10 4.5639 9.90625 5.06456 9.71875 5.54941C9.53125 6.03426 9.26042 6.46113 8.90625 6.83004C9.76042 7.30435 10.4583 7.95784 11 8.79051C11.2812 8.36891 11.6042 7.98946 11.9688 7.65217C12.3333 7.31489 12.7292 7.0303 13.1562 6.79842C13.5833 6.56653 14.0365 6.38735 14.5156 6.26087C14.9948 6.13439 15.4896 6.07115 16 6.07115C16.5 6.07115 16.9896 6.13439 17.4688 6.26087C17.9479 6.38735 18.401 6.56653 18.8281 6.79842C19.2552 7.0303 19.6562 7.31489 20.0312 7.65217C20.4062 7.98946 20.7292 8.36891 21 8.79051C21.5417 7.95784 22.2396 7.30435 23.0938 6.83004C22.75 6.46113 22.4844 6.03426 22.2969 5.54941C22.1094 5.06456 22.0104 4.5639 22 4.04743C22 3.4888 22.1042 2.96706 22.3125 2.48221C22.5208 1.99736 22.8073 1.56522 23.1719 1.18577C23.5365 0.806324 23.9583 0.516469 24.4375 0.316206C24.9167 0.115942 25.4375 0.0105402 26 0C26.5521 0 27.0677 0.105402 27.5469 0.316206C28.026 0.527009 28.4531 0.816864 28.8281 1.18577C29.2031 1.55468 29.4896 1.98155 29.6875 2.4664C29.8854 2.95125 29.9896 3.47826 30 4.04743C30 4.5639 29.9062 5.06456 29.7188 5.54941C29.5312 6.03426 29.2604 6.46113 28.9062 6.83004C29.3854 7.10408 29.8125 7.43083 30.1875 7.81028C30.5625 8.18972 30.8854 8.60606 31.1562 9.05929C31.4271 9.51252 31.6354 10.0026 31.7812 10.5296C31.9271 11.0567 32 11.5942 32 12.1423H30C30 11.5837 29.8958 11.0619 29.6875 10.5771C29.4792 10.0922 29.1927 9.66008 28.8281 9.28063C28.4635 8.90119 28.0417 8.61133 27.5625 8.41107C27.0833 8.2108 26.5625 8.1054 26 8.09486ZM24 4.04743C24 4.33202 24.0521 4.59552 24.1562 4.83794C24.2604 5.08037 24.401 5.29117 24.5781 5.47036C24.7552 5.64954 24.9688 5.7971 25.2188 5.91304C25.4688 6.02899 25.7292 6.08169 26 6.07115C26.2812 6.07115 26.5417 6.01845 26.7812 5.91304C27.0208 5.80764 27.2292 5.66535 27.4062 5.48617C27.5833 5.30698 27.7292 5.09091 27.8438 4.83794C27.9583 4.58498 28.0104 4.32148 28 4.04743C28 3.76285 27.9479 3.49934 27.8438 3.25692C27.7396 3.01449 27.599 2.80369 27.4219 2.62451C27.2448 2.44532 27.0312 2.29776 26.7812 2.18182C26.5312 2.06588 26.2708 2.01318 26 2.02372C25.7188 2.02372 25.4583 2.07642 25.2188 2.18182C24.9792 2.28722 24.7708 2.42951 24.5938 2.6087C24.4167 2.78788 24.2708 3.00395 24.1562 3.25692C24.0417 3.50988 23.9896 3.77339 24 4.04743ZM4 4.04743C4 4.33202 4.05208 4.59552 4.15625 4.83794C4.26042 5.08037 4.40104 5.29117 4.57812 5.47036C4.75521 5.64954 4.96875 5.7971 5.21875 5.91304C5.46875 6.02899 5.72917 6.08169 6 6.07115C6.28125 6.07115 6.54167 6.01845 6.78125 5.91304C7.02083 5.80764 7.22917 5.66535 7.40625 5.48617C7.58333 5.30698 7.72917 5.09091 7.84375 4.83794C7.95833 4.58498 8.01042 4.32148 8 4.04743C8 3.76285 7.94792 3.49934 7.84375 3.25692C7.73958 3.01449 7.59896 2.80369 7.42188 2.62451C7.24479 2.44532 7.03125 2.29776 6.78125 2.18182C6.53125 2.06588 6.27083 2.01318 6 2.02372C5.71875 2.02372 5.45833 2.07642 5.21875 2.18182C4.97917 2.28722 4.77083 2.42951 4.59375 2.6087C4.41667 2.78788 4.27083 3.00395 4.15625 3.25692C4.04167 3.50988 3.98958 3.77339 4 4.04743ZM12 12.1423C12 12.7009 12.1042 13.2227 12.3125 13.7075C12.5208 14.1924 12.8073 14.6245 13.1719 15.004C13.5365 15.3834 13.9583 15.6733 14.4375 15.8735C14.9167 16.0738 15.4375 16.1792 16 16.1897C16.5521 16.1897 17.0677 16.0843 17.5469 15.8735C18.026 15.6627 18.4531 15.3729 18.8281 15.004C19.2031 14.635 19.4896 14.2082 19.6875 13.7233C19.8854 13.2385 19.9896 12.7115 20 12.1423C20 11.5837 19.8958 11.0619 19.6875 10.5771C19.4792 10.0922 19.1927 9.66008 18.8281 9.28063C18.4635 8.90119 18.0417 8.61133 17.5625 8.41107C17.0833 8.2108 16.5625 8.1054 16 8.09486C15.4479 8.09486 14.9323 8.20026 14.4531 8.41107C13.974 8.62187 13.5469 8.91173 13.1719 9.28063C12.7969 9.64954 12.5104 10.0764 12.3125 10.5613C12.1146 11.0461 12.0104 11.5731 12 12.1423Z" fill="#0E0B1D"/>
</svg>
