<svg width="154" height="219" viewBox="0 0 154 219" fill="none" xmlns="http://www.w3.org/2000/svg">
<g id="Group">
<path id="Vector" fill-rule="evenodd" clip-rule="evenodd" d="M77 152.958C97.2835 152.958 116.736 144.901 131.079 130.558C145.422 116.215 153.479 96.7627 153.479 76.4792C153.479 56.1956 145.422 36.7429 131.079 22.4002C116.736 8.0576 97.2835 0 77 0C56.7164 0 37.2637 8.0576 22.921 22.4002C8.57842 36.7429 0.520813 56.1956 0.520813 76.4792C0.520813 96.7627 8.57842 116.215 22.921 130.558C37.2637 144.901 56.7164 152.958 77 152.958ZM77 43.7024C73.8971 43.7024 71.8213 47.4171 67.6695 54.8793L66.5988 56.8022C65.4189 58.9217 64.8289 59.9706 63.9111 60.6698C62.9824 61.3691 61.8353 61.6313 59.5409 62.1448L57.465 62.6255C49.4019 64.4501 45.3704 65.3569 44.4089 68.4379C43.4475 71.5299 46.2007 74.742 51.6963 81.1663L53.1166 82.827C54.679 84.6515 55.4656 85.5583 55.8153 86.6946C56.1649 87.8309 56.0447 89.0436 55.8153 91.48L55.5967 93.6979C54.7664 102.275 54.3512 106.568 56.8532 108.469C59.3661 110.37 63.1463 108.633 70.6959 105.159L72.6407 104.263C74.793 103.28 75.8637 102.788 77 102.788C78.1362 102.788 79.207 103.28 81.3593 104.263L83.3041 105.159C90.8536 108.644 94.6339 110.37 97.1468 108.469C99.6597 106.568 99.2336 102.275 98.4032 93.6979L98.1847 91.48C97.9553 89.0436 97.8351 87.8309 98.1847 86.6946C98.5343 85.5693 99.321 84.6515 100.883 82.827L102.304 81.1663C107.799 74.742 110.552 71.5299 109.591 68.4379C108.63 65.3569 104.598 64.4501 96.535 62.6255L94.4591 62.1448C92.1647 61.6313 91.0175 61.38 90.0889 60.6698C89.1711 59.9706 88.5811 58.9217 87.4012 56.8022L86.3304 54.8793C82.1787 47.4171 80.1029 43.7024 77 43.7024Z" fill="#FFD400"/>
<path id="Vector_2" d="M23.3881 152.313L19.2473 167.413C12.386 192.454 8.9554 204.975 13.5332 211.825C15.1393 214.229 17.2916 216.152 19.7936 217.43C26.9171 221.057 37.9301 215.321 59.9452 203.85C67.2653 200.026 70.9363 198.125 74.8258 197.709C76.2712 197.555 77.7289 197.555 79.1742 197.709C83.0637 198.125 86.7238 200.036 94.0549 203.85C116.07 215.321 127.083 221.057 134.206 217.43C136.708 216.152 138.861 214.229 140.467 211.825C145.056 204.975 141.614 192.454 134.753 167.413L130.612 152.313C114.945 163.423 96.2062 169.376 77 169.346C57.7938 169.377 39.0551 163.423 23.3881 152.313Z" fill="#FFD400"/>
</g>
</svg>
